<svg width="51" height="36" viewBox="0 0 51 36" fill="none" xmlns="http://www.w3.org/2000/svg">
<path fill-rule="evenodd" clip-rule="evenodd" d="M9.54125 8.62082C10.3599 8.42411 11.1966 8.32508 12.036 8.32557C18.683 8.32557 24.0699 14.447 24.0699 21.9952C24.0699 29.5455 18.683 35.667 12.036 35.667C5.389 35.667 0 29.5478 0 21.9952C0 21.7743 0.00425 21.5511 0.014875 21.3303H0C0 9.93707 8.16 0.666992 18.19 0.666992V5.25583C14.9366 5.25583 11.9361 6.51347 9.54125 8.62082ZM36.4735 8.62082C37.2767 8.42699 38.1098 8.32557 38.964 8.32557C45.611 8.32557 51 14.447 51 21.9952C51 29.5455 45.611 35.667 38.964 35.667C32.317 35.667 26.9301 29.5478 26.9301 21.9952C26.9301 21.7743 26.9344 21.5511 26.945 21.3303H26.9301C26.9301 9.93707 35.0901 0.666992 45.1201 0.666992V5.25583C41.8646 5.25583 38.8684 6.51347 36.4735 8.62082Z" fill="#E7E7E7"/>
</svg>
