<svg width="50" height="51" viewBox="0 0 50 51" fill="none" xmlns="http://www.w3.org/2000/svg">
<rect x="0.5" y="1.16699" width="49" height="49" rx="24.5" stroke="white"/>
<path d="M25 18.167C27.9959 18.167 29.4943 18.1669 30.5732 18.8809C31.0549 19.1996 31.4674 19.6121 31.7861 20.0938C32.5 21.1727 32.5 22.671 32.5 25.667C32.5 28.6629 32.5 30.1613 31.7861 31.2402C31.4674 31.7219 31.0549 32.1344 30.5732 32.4531C29.4943 33.167 27.9959 33.167 25 33.167C22.0041 33.167 20.5057 33.167 19.4268 32.4531C18.9451 32.1344 18.5326 31.7219 18.2139 31.2402C17.5 30.1613 17.5 28.6629 17.5 25.667C17.5 22.671 17.5 21.1727 18.2139 20.0938C18.5326 19.6121 18.9451 19.1996 19.4268 18.8809C20.5057 18.1669 22.0041 18.167 25 18.167ZM25 21.7842C22.8556 21.7842 21.1173 23.5226 21.1172 25.667C21.1172 27.8114 22.8556 29.5498 25 29.5498C27.1444 29.5497 28.8828 27.8114 28.8828 25.667C28.8827 23.5227 27.1443 21.7843 25 21.7842ZM25 23.0977C26.4188 23.0977 27.5692 24.2482 27.5693 25.667C27.5693 27.0859 26.4189 28.2363 25 28.2363C23.5811 28.2363 22.4307 27.0859 22.4307 25.667C22.4308 24.2482 23.5812 23.0977 25 23.0977ZM29.0361 20.6768C28.5323 20.6768 28.1242 21.0851 28.124 21.5889C28.124 22.0927 28.5323 22.501 29.0361 22.501C29.54 22.5009 29.9482 22.0927 29.9482 21.5889C29.9481 21.0851 29.5399 20.6768 29.0361 20.6768Z" fill="white"/>
</svg>
