<svg width="50" height="51" viewBox="0 0 50 51" fill="none" xmlns="http://www.w3.org/2000/svg">
<rect x="0.5" y="1.16699" width="49" height="49" rx="24.5" stroke="white"/>
<path d="M17 19.9094C17 19.4044 17.1802 18.9877 17.5405 18.6594C17.9009 18.3311 18.3694 18.167 18.9459 18.167C19.5122 18.167 19.9704 18.3286 20.3205 18.6518C20.6808 18.9852 20.861 19.4195 20.861 19.9549C20.861 20.4397 20.686 20.8438 20.3359 21.167C19.9756 21.5003 19.5019 21.667 18.9151 21.667H18.8996C18.3333 21.667 17.8752 21.5003 17.5251 21.167C17.175 20.8337 17 20.4145 17 19.9094ZM17.2008 33.167V23.0458H20.6293V33.167H17.2008ZM22.529 33.167H25.9575V27.5155C25.9575 27.1619 25.9987 26.8892 26.0811 26.6973C26.2252 26.3539 26.444 26.0634 26.7375 25.8261C27.0309 25.5887 27.399 25.47 27.8417 25.47C28.9949 25.47 29.5714 26.2326 29.5714 27.7579V33.167H33V27.364C33 25.869 32.6396 24.7352 31.9189 23.9624C31.1982 23.1897 30.2458 22.8034 29.0618 22.8034C27.7336 22.8034 26.6988 23.364 25.9575 24.4852V24.5155H25.9421L25.9575 24.4852V23.0458H22.529C22.5495 23.369 22.5598 24.3741 22.5598 26.0609C22.5598 27.7478 22.5495 30.1165 22.529 33.167Z" fill="white"/>
</svg>
