<svg width="167" height="167" viewBox="0 0 167 167" fill="none" xmlns="http://www.w3.org/2000/svg">
<path d="M5.19985 71.8235C5.09308 72.4311 5.56052 73 6.17743 73H23.1663C23.6492 73 24.0597 72.6659 24.1569 72.1929C27.0044 58.3416 40.4309 30.7376 73.1773 24.16C73.6489 24.0653 74 23.6516 74 23.1707V6.07071C74 5.49157 73.5251 5.03148 72.9484 5.08386C53.2163 6.87586 13.8747 22.456 5.19985 71.8235Z" fill="white"/>
<path d="M5.19985 95.1765C5.09308 94.5689 5.56052 94 6.17743 94H23.1663C23.6492 94 24.0597 94.3341 24.1569 94.8071C27.0044 108.658 40.4309 136.262 73.1773 142.84C73.6489 142.935 74 143.348 74 143.829V160.929C74 161.508 73.5251 161.969 72.9484 161.916C53.2163 160.124 13.8747 144.544 5.19985 95.1765Z" fill="white"/>
<path d="M161.8 71.8235C161.907 72.4311 161.439 73 160.823 73H143.834C143.351 73 142.94 72.6659 142.843 72.1929C139.996 58.3416 126.569 30.7376 93.8227 24.16C93.3511 24.0653 93 23.6516 93 23.1707V6.07071C93 5.49157 93.4749 5.03148 94.0516 5.08386C113.784 6.87586 153.125 22.456 161.8 71.8235Z" fill="white"/>
<path d="M161.8 95.1765C161.907 94.5689 161.439 94 160.823 94H143.834C143.351 94 142.94 94.3341 142.843 94.8071C139.996 108.658 126.569 136.262 93.8227 142.84C93.3511 142.935 93 143.348 93 143.829V160.929C93 161.508 93.4749 161.969 94.0516 161.916C113.784 160.124 153.125 144.544 161.8 95.1765Z" fill="white"/>
<circle cx="83.5" cy="83.5" r="11.5" fill="white"/>
<path d="M83.5 0C84.8807 0 86 1.11929 86 2.5V42.3386C86 44.4458 87.6416 46.1685 89.72 46.5154C105.447 49.1407 117.858 61.553 120.484 77.28C120.831 79.3584 122.553 81 124.66 81H164.5C165.881 81 167 82.1193 167 83.5C167 84.8807 165.881 86 164.5 86H124.66C122.553 86 120.831 87.6416 120.484 89.72C117.858 105.447 105.447 117.858 89.72 120.484C87.6416 120.831 86 122.553 86 124.66V164.5C86 165.881 84.8807 167 83.5 167C82.1193 167 81 165.881 81 164.5V124.66C81 122.553 79.3584 120.831 77.28 120.484C61.5531 117.858 49.1416 105.447 46.5164 89.72C46.1695 87.6416 44.4468 86 42.3396 86H2.5C1.11929 86 0 84.8807 0 83.5C0 82.1193 1.11929 81 2.5 81H42.3396C44.4468 81 46.1695 79.3584 46.5164 77.28C49.1416 61.553 61.5531 49.1407 77.28 46.5154C79.3584 46.1685 81 44.4458 81 42.3386V2.5C81 1.11929 82.1193 0 83.5 0ZM83.5 60.0312C70.5388 60.0312 60.0312 70.5388 60.0312 83.5C60.0312 96.4612 70.5388 106.969 83.5 106.969C96.4612 106.969 106.969 96.4612 106.969 83.5C106.969 70.5388 96.4612 60.0312 83.5 60.0312Z" fill="#FF1100"/>
</svg>
