<svg width="36" height="37" viewBox="0 0 36 37" fill="none" xmlns="http://www.w3.org/2000/svg">
<rect y="0.666992" width="36" height="36" rx="18" fill="white"/>
<path d="M23.1516 20.263L25.4269 22.5383C25.7434 22.8548 25.7434 23.368 25.4269 23.6846C23.7156 25.3959 21.0063 25.5884 19.0702 24.1363L17.9619 23.3051C16.2184 21.9974 14.6696 20.4486 13.3619 18.7051L12.5307 17.5968C11.0786 15.6607 11.2711 12.9514 12.9824 11.2401C13.299 10.9236 13.8122 10.9236 14.1287 11.2401L16.404 13.5154C16.7945 13.906 16.7945 14.5391 16.404 14.9297L15.5749 15.7588C15.4306 15.903 15.3949 16.1234 15.4861 16.3059C16.5409 18.4155 18.2515 20.1261 20.3611 21.1809C20.5436 21.2721 20.764 21.2364 20.9082 21.0921L21.7373 20.263C22.1279 19.8725 22.761 19.8725 23.1516 20.263Z" stroke="#00214A"/>
</svg>
