<svg width="50" height="51" viewBox="0 0 50 51" fill="none" xmlns="http://www.w3.org/2000/svg">
<rect x="0.5" y="1.16699" width="49" height="49" rx="24.5" stroke="white"/>
<path d="M25.4388 32.6472L21.3766 32.5712C20.0613 32.5448 18.7428 32.5976 17.4533 32.3235C15.4918 31.914 15.3528 29.9061 15.2074 28.2219C15.007 25.854 15.0846 23.4432 15.4627 21.0951C15.6762 19.7776 16.5162 18.9914 17.8153 18.9059C22.2006 18.5954 26.6151 18.6322 30.9908 18.7771C31.4529 18.7903 31.9182 18.8629 32.3739 18.9455C34.6232 19.3484 34.678 21.6238 34.8238 23.5393C34.9692 25.4745 34.9078 27.4197 34.6299 29.3417C34.4069 30.9331 33.9803 32.2677 32.1799 32.3965C29.9242 32.565 27.7202 32.7006 25.4581 32.6574C25.4582 32.6472 25.4452 32.6472 25.4388 32.6472ZM23.0506 28.6182C24.7505 27.6208 26.418 26.64 28.1081 25.6493C26.4051 24.6518 24.7408 23.6711 23.0506 22.6803V28.6182Z" fill="white"/>
</svg>
